<?xml version="1.0" standalone="no"?>
<!DOCTYPE svg PUBLIC "-//W3C//DTD SVG 20010904//EN"
 "http://www.w3.org/TR/2001/REC-SVG-20010904/DTD/svg10.dtd">
<svg version="1.0" xmlns="http://www.w3.org/2000/svg"
 width="54.000000pt" height="55.000000pt" viewBox="0 0 54.000000 55.000000"
 preserveAspectRatio="xMidYMid meet">

<g transform="translate(0.000000,55.000000) scale(0.100000,-0.100000)"
fill="#000000" stroke="none">
<path d="M200 506 l-55 -32 -3 -78 -3 -77 69 38 69 37 61 -36 62 -37 0 74 0
73 -64 36 c-35 20 -68 36 -73 36 -4 -1 -33 -16 -63 -34z"/>
<path d="M180 265 c0 -45 0 -45 34 -45 42 0 45 4 39 53 -5 35 -7 37 -39 37
-34 0 -34 -1 -34 -45z m53 20 c1 -5 -6 -11 -15 -13 -11 -2 -18 3 -18 13 0 17
30 18 33 0z m0 -40 c1 -5 -6 -11 -15 -13 -11 -2 -18 3 -18 13 0 17 30 18 33 0z"/>
<path d="M280 265 c0 -48 13 -60 24 -22 l7 22 16 -22 c22 -32 39 -29 18 3 -16
24 -16 27 1 45 11 13 13 19 5 19 -7 0 -21 -10 -32 -22 l-18 -23 -1 23 c0 12
-4 22 -10 22 -5 0 -10 -20 -10 -45z"/>
<path d="M410 235 l0 -75 -46 -28 c-81 -48 -82 -49 -60 -65 11 -8 38 -25 61
-37 l41 -23 67 39 67 38 0 77 c0 69 -2 77 -22 87 -13 6 -42 23 -65 37 l-43 26
0 -76z"/>
<path d="M60 266 l-55 -32 -3 -76 -3 -75 61 -37 c34 -20 68 -36 75 -36 15 0
124 62 125 70 0 3 -29 23 -65 43 l-65 38 0 69 c0 39 -3 70 -7 70 -5 -1 -33
-16 -63 -34z"/>
</g>
</svg>
