<svg width="23" height="22" viewBox="0 0 23 22" fill="none" xmlns="http://www.w3.org/2000/svg">
<g id="Icon">
<path id="Icon_2" d="M4.33351 13H17.4692C18.4821 13 18.9885 13 19.3916 12.8112C19.7468 12.6448 20.0452 12.3777 20.2497 12.0432C20.4819 11.6633 20.5378 11.16 20.6497 10.1534L21.2347 4.88835C21.2688 4.58088 21.2859 4.42715 21.2365 4.30816C21.1931 4.20366 21.1155 4.11697 21.0164 4.06228C20.9036 4 20.7489 4 20.4396 4H3.83351M1.33337 1H2.58181C2.84644 1 2.97875 1 3.08226 1.05032C3.17339 1.09463 3.24891 1.16557 3.29881 1.25376C3.35549 1.35394 3.36375 1.48599 3.38026 1.7501L4.28649 16.2499C4.303 16.514 4.31125 16.6461 4.36794 16.7462C4.41784 16.8344 4.49336 16.9054 4.58449 16.9497C4.688 17 4.82031 17 5.08493 17H18.3334M6.83337 20.5H6.84337M15.8334 20.5H15.8434M7.33337 20.5C7.33337 20.7761 7.10952 21 6.83337 21C6.55723 21 6.33337 20.7761 6.33337 20.5C6.33337 20.2239 6.55723 20 6.83337 20C7.10952 20 7.33337 20.2239 7.33337 20.5ZM16.3334 20.5C16.3334 20.7761 16.1095 21 15.8334 21C15.5572 21 15.3334 20.7761 15.3334 20.5C15.3334 20.2239 15.5572 20 15.8334 20C16.1095 20 16.3334 20.2239 16.3334 20.5Z" stroke="black" stroke-width="2" stroke-linecap="round" stroke-linejoin="round"/>
</g>
</svg>
