<svg width="22" height="22" viewBox="0 0 22 22" fill="none" xmlns="http://www.w3.org/2000/svg">
<g id="play-square">
<g id="Icon">
<path d="M8.70833 8.21822C8.70833 7.78071 8.70833 7.56195 8.79976 7.43983C8.87944 7.3334 9.0014 7.26682 9.13401 7.25734C9.28619 7.24648 9.4702 7.36477 9.83822 7.60136L14.1654 10.3831C14.4848 10.5884 14.6445 10.6911 14.6996 10.8216C14.7478 10.9357 14.7478 11.0643 14.6996 11.1784C14.6445 11.3089 14.4848 11.4116 14.1654 11.6169L9.83822 14.3986C9.4702 14.6352 9.28619 14.7535 9.13401 14.7427C9.0014 14.7332 8.87944 14.6666 8.79976 14.5602C8.70833 14.438 8.70833 14.2193 8.70833 13.7818V8.21822Z" stroke="black" stroke-width="2" stroke-linecap="round" stroke-linejoin="round"/>
<path d="M2.75 7.15C2.75 5.60986 2.75 4.83978 3.04973 4.25153C3.31338 3.73408 3.73408 3.31338 4.25153 3.04973C4.83978 2.75 5.60986 2.75 7.15 2.75H14.85C16.3901 2.75 17.1602 2.75 17.7485 3.04973C18.2659 3.31338 18.6866 3.73408 18.9503 4.25153C19.25 4.83978 19.25 5.60986 19.25 7.15V14.85C19.25 16.3901 19.25 17.1602 18.9503 17.7485C18.6866 18.2659 18.2659 18.6866 17.7485 18.9503C17.1602 19.25 16.3901 19.25 14.85 19.25H7.15C5.60986 19.25 4.83978 19.25 4.25153 18.9503C3.73408 18.6866 3.31338 18.2659 3.04973 17.7485C2.75 17.1602 2.75 16.3901 2.75 14.85V7.15Z" stroke="black" stroke-width="2" stroke-linecap="round" stroke-linejoin="round"/>
</g>
</g>
</svg>
