<svg width="22" height="22" viewBox="0 0 22 22" fill="none" xmlns="http://www.w3.org/2000/svg">
<g id="book-closed">
<path id="Icon" d="M18.3332 17.4166V14.6666H6.4165C4.89772 14.6666 3.6665 15.8978 3.6665 17.4166M8.0665 20.1666H15.3998C16.4266 20.1666 16.94 20.1666 17.3322 19.9668C17.6771 19.791 17.9576 19.5105 18.1333 19.1656C18.3332 18.7734 18.3332 18.26 18.3332 17.2333V4.76658C18.3332 3.73982 18.3332 3.22644 18.1333 2.83427C17.9576 2.48931 17.6771 2.20884 17.3322 2.03307C16.94 1.83325 16.4266 1.83325 15.3998 1.83325H8.0665C6.52636 1.83325 5.75629 1.83325 5.16803 2.13298C4.65058 2.39664 4.22989 2.81733 3.96624 3.33478C3.6665 3.92304 3.6665 4.69311 3.6665 6.23325V15.7666C3.6665 17.3067 3.6665 18.0768 3.96624 18.6651C4.22989 19.1825 4.65058 19.6032 5.16803 19.8669C5.75629 20.1666 6.52636 20.1666 8.0665 20.1666Z" stroke="black" stroke-width="2" stroke-linecap="round" stroke-linejoin="round"/>
</g>
</svg>
