<svg width="22" height="22" viewBox="0 0 22 22" fill="none" xmlns="http://www.w3.org/2000/svg">
<g id="certificate-02">
<path id="Icon" d="M8.25 16.9583H13.75M6.41667 13.7499H15.5833M4.58333 1.83325H17.4167C18.4292 1.83325 19.25 2.74526 19.25 3.87029V18.1295C19.25 19.2546 18.4292 20.1666 17.4167 20.1666H4.58333C3.57081 20.1666 2.75 19.2546 2.75 18.1295V3.87029C2.75 2.74526 3.57081 1.83325 4.58333 1.83325ZM10.9978 5.6942C10.3563 4.97999 9.28667 4.78786 8.48296 5.44187C7.67926 6.09587 7.56611 7.18933 8.19726 7.96282C8.82842 8.73631 10.9978 10.5416 10.9978 10.5416C10.9978 10.5416 13.1672 8.73631 13.7983 7.96282C14.4295 7.18933 14.3302 6.08899 13.5126 5.44187C12.6951 4.79474 11.6393 4.97999 10.9978 5.6942Z" stroke="black" stroke-width="2" stroke-linecap="round" stroke-linejoin="round"/>
</g>
</svg>
